# xmcd CD database file
#
# Track frame offsets:
#	150
#	28340
#	55745
#	78995
#	90663
#	104790
#	127853
#	152813
#
# Disc length: 2110 seconds
#
# Revision: 4
# Processed by: cddbd v1.5PL3 Copyright (c) Steve Scherf et al.
# Submitted via: CDex 1.51
#
DISCID=61083c08
DTITLE=Marshall Tucker Band - Marshall Tucker Band
DYEAR=1973
DGENRE=Southern Rock
TTITLE0=Take the Highway
TTITLE1=Can't You See
TTITLE2=Losing You
TTITLE3=Hillbilly Band
TTITLE4=See You Later, I'm Gone
TTITLE5=Ramblin'
TTITLE6=My Jesus Told Me So
TTITLE7=AB's Song
EXTD=YEAR=1973\nLABEL=AJK Music\nID=A 618-2\nUPC=0 22775-6182-2 8\nSPARS=AAD YEAR: 1973
EXTT0=
EXTT1=
EXTT2=
EXTT3=
EXTT4=
EXTT5=
EXTT6=
EXTT7=
PLAYORDER=
